<?xml version="1.0" encoding="utf-8"?>
<!-- Generator: Adobe Illustrator 24.0.1, SVG Export Plug-In . SVG Version: 6.00 Build 0)  -->
<svg version="1.1" id="Слой_1" xmlns="http://www.w3.org/2000/svg" xmlns:xlink="http://www.w3.org/1999/xlink" x="0px" y="0px"
	 viewBox="0 0 223 89" style="enable-background:new 0 0 223 89;" xml:space="preserve">
<style type="text/css">
	.st0{fill:none;}
	.st1{display:none;}
	.st2{display:inline;fill:none;}
	.st3{fill-rule:evenodd;clip-rule:evenodd;fill:#281B28;}
	.st4{fill:url(#svg_24_1_);}
	.st5{fill:url(#svg_25_1_);}
	.st6{fill:url(#svg_26_1_);}
	.st7{fill:#281B28;}
</style>
<g>
	<title>background</title>
	<rect id="canvas_background" x="-1" y="-1" class="st0" width="225" height="91"/>
	<g id="canvasGrid" class="st1">
		<rect class="st2" width="223" height="89"/>
	</g>
</g>
<path id="svg_23" class="st3" d="M47.6,34v30H56V34H47.6z M61.5,34v30h8.2V47.6l12.8,16.5h7.3V34h-8.2v15.9L69.2,34H61.5L61.5,34z
	 M95.1,64.1V34h8.3v12.2L113.8,34h9.9l-11.4,13L124,64.1h-10l-7.5-11.2l-3.1,3.4v7.8C103.5,64.1,95.1,64.1,95.1,64.1z M126.5,34v30
	l0,0h24.4v-7h-16.1v-4.8h14.4v-6.6h-14.4V41h15.9v-7H126.5L126.5,34z M155.1,64.1V34h14.2c4.4,0,7.6,1.1,9.8,3.2
	c1.8,1.8,2.7,4.1,2.7,7.1c0,4.4-2.1,7.5-6.2,9.2l7.2,10.5h-9.6l-6-9.1h-3.6V64L155.1,64.1L155.1,64.1z M163.4,48.5h5.5
	c1.4,0,2.5-0.3,3.3-1s1.2-1.5,1.2-2.7s-0.4-2.1-1.2-2.7s-1.9-0.9-3.3-0.9h-5.4L163.4,48.5L163.4,48.5z M183.6,59.3
	c3.6,3.2,8.2,4.8,13.7,4.8c3.6,0,6.5-0.8,8.6-2.5s3.2-4,3.2-6.9c0-2.6-0.9-4.5-2.7-5.9s-4.5-2.4-8.2-3.2c-2-0.4-3.4-0.9-4-1.2
	s-1-0.9-1-1.6c0-0.6,0.3-1.1,0.8-1.4c0.5-0.4,1.2-0.5,2.2-0.5c2.7,0,5.5,0.9,8.2,2.8l4.1-5.6c-3.2-2.6-7.3-3.8-12.1-3.8
	c-3.5,0-6.2,0.9-8.3,2.6c-2.1,1.7-3.1,3.9-3.1,6.7c0,1.4,0.3,2.7,0.8,3.7s1.3,1.9,2.5,2.6c1.1,0.7,2.2,1.2,3.4,1.6
	c1.1,0.4,2.6,0.8,4.4,1.2c2,0.4,3.3,0.9,3.9,1.3c0.7,0.4,1,0.9,1,1.5c0,1.4-1.1,2.1-3.3,2.1c-3.4,0-6.6-1.1-9.5-3.5
	C188.2,54,183.6,59.3,183.6,59.3z"/>
<linearGradient id="svg_24_1_" gradientUnits="userSpaceOnUse" x1="-324.5433" y1="116.1274" x2="-322.7668" y2="113.1295" gradientTransform="matrix(6.1156 0 0 6.1156 2196.8079 -644.0436)">
	<stop  offset="0" style="stop-color:#FF0069"/>
	<stop  offset="0.5155" style="stop-color:#7644A9"/>
	<stop  offset="1" style="stop-color:#19EEE6"/>
</linearGradient>
<path id="svg_24" class="st4" d="M218.1,58H212v6.1h6.1V58z"/>
<linearGradient id="svg_25_1_" gradientUnits="userSpaceOnUse" x1="-363.6435" y1="22.6343" x2="-364.1038" y2="18.5661" gradientTransform="matrix(16.3176 0 0 32.3373 5944.3296 -670.4502)">
	<stop  offset="0" style="stop-color:#FF0069"/>
	<stop  offset="0.5155" style="stop-color:#7644A9"/>
	<stop  offset="1" style="stop-color:#19EEE6"/>
</linearGradient>
<path id="svg_25" class="st5" d="M1.1,44.5c0,0,3.8,0,3.8,4.6s0,14.4,0,14.4V64h12.4V31.5L1.1,40.7V44.5z"/>
<linearGradient id="svg_26_1_" gradientUnits="userSpaceOnUse" x1="-359.6728" y1="53.2292" x2="-360.2055" y2="43.897" gradientTransform="matrix(14.019 0 0 14.019 5054.7749 -684.8375)">
	<stop  offset="0" style="stop-color:#FF0069"/>
	<stop  offset="0.5155" style="stop-color:#7644A9"/>
	<stop  offset="1" style="stop-color:#19EEE6"/>
</linearGradient>
<path id="svg_26" class="st6" d="M10.4,31.2c3.9,0,7-3.1,7-7s-3.1-7-7-7s-7,3.1-7,7S6.5,31.2,10.4,31.2z"/>
<path class="st7" d="M38.3,19.5l-4.8,2.7L21.7,29v3.4c5,0,4.3,4.7,4.3,4.7v0.2L38.3,29V19.5z"/>
<path class="st7" d="M38.3,19.5l-4.8,2.7L21.7,29v3.4c5,0,4.3,4.7,4.3,4.7v0.2L38.3,29V19.5z"/>
<path class="st7" d="M38.3,34v0.1V34v-4.7L26,37.5V52c0,5,3.1,9.3,7.5,11.1c1.5,0.6,3.1,0.9,4.7,0.9V41l7.1-7H38.3z"/>
<path class="st7" d="M1.1,40.7"/>
<line class="st0" x1="1.2" y1="40.8" x2="39.2" y2="18.9"/>
<line class="st0" x1="39.2" y1="18.8" x2="1.2" y2="40.7"/>
<rect x="26" y="26.5" class="st7" width="12.3" height="14.3"/>
<line class="st0" x1="47.6" y1="64.1" x2="17" y2="64"/>
<line class="st0" x1="47.9" y1="64" x2="16.5" y2="64"/>
</svg>
